<?xml version="1.0" standalone="no"?>
<!DOCTYPE svg PUBLIC "-//W3C//DTD SVG 20010904//EN"
 "http://www.w3.org/TR/2001/REC-SVG-20010904/DTD/svg10.dtd">
<svg version="1.0" xmlns="http://www.w3.org/2000/svg"
 width="1024.000000pt" height="1024.000000pt" viewBox="0 0 1024.000000 1024.000000"
 preserveAspectRatio="xMidYMid meet">
<metadata>
Created by potrace 1.16, written by Peter Selinger 2001-2019
</metadata>
<g transform="translate(0.000000,1024.000000) scale(0.100000,-0.100000)"
fill="#000000" stroke="none">
<path d="M4810 9313 c-19 -1 -87 -8 -150 -14 -164 -15 -431 -61 -600 -104
-991 -249 -1841 -832 -2446 -1678 -414 -579 -661 -1208 -755 -1922 -19 -143
-23 -219 -23 -475 -1 -382 19 -585 90 -922 233 -1107 963 -2121 1962 -2725
834 -505 1796 -708 2769 -583 800 103 1587 452 2203 979 114 98 383 364 485
481 574 659 928 1498 1005 2385 14 156 14 577 0 730 -76 830 -381 1580 -912
2245 -517 646 -1189 1121 -1962 1386 -328 112 -670 183 -1041 214 -110 9 -541
11 -625 3z m555 -193 c570 -41 1138 -200 1615 -452 955 -506 1656 -1333 1989
-2348 78 -237 130 -473 168 -758 21 -161 25 -754 5 -902 -90 -679 -280 -1212
-625 -1750 -447 -698 -1141 -1270 -1907 -1573 -514 -203 -957 -289 -1495 -290
-457 -1 -851 62 -1275 203 -326 108 -607 239 -876 406 -295 185 -498 347 -745
593 -307 308 -535 615 -727 981 -273 519 -414 1026 -453 1620 -43 682 101
1388 411 2010 306 615 757 1137 1326 1536 322 226 661 397 1029 520 508 169
1051 240 1560 204z"/>
<path d="M4756 9059 c-90 -8 -118 -14 -105 -22 2 -1 34 -30 71 -65 l66 -62 75
6 c53 5 76 3 82 -6 13 -21 -8 -28 -92 -32 l-83 -3 -90 83 -90 83 -110 -16
c-61 -10 -110 -19 -110 -21 0 -2 32 -30 71 -62 l70 -60 85 6 c71 4 84 2 84
-10 0 -12 -16 -18 -57 -22 -32 -4 -72 -9 -89 -12 -27 -5 -42 4 -123 73 -65 54
-100 77 -115 75 -56 -8 -196 -44 -196 -50 0 -4 33 -30 73 -59 l73 -51 78 10
c56 8 80 8 88 0 14 -14 10 -16 -96 -36 l-78 -16 -96 71 c-106 78 -88 76 -229
33 -46 -14 -83 -28 -83 -32 0 -4 35 -28 78 -54 l78 -47 74 19 c40 10 78 17 82
14 21 -13 -4 -29 -81 -50 l-82 -22 -104 64 -103 64 -108 -41 -107 -42 79 -43
c43 -24 86 -44 95 -44 8 0 43 10 78 21 46 16 66 18 74 10 15 -15 12 -17 -77
-48 l-79 -28 -106 57 -106 56 -102 -46 c-57 -25 -103 -48 -103 -51 0 -3 38
-23 85 -43 l84 -36 75 26 c53 19 78 24 86 16 7 -7 -14 -21 -75 -47 l-84 -37
-108 49 -108 49 -86 -44 c-135 -70 -134 -64 -29 -102 l91 -33 70 32 c50 23 73
29 81 21 7 -7 -12 -22 -71 -51 l-81 -41 -110 40 c-124 46 -108 49 -229 -33
-84 -56 -84 -55 31 -85 l76 -20 59 34 c57 33 93 43 93 25 0 -14 -129 -91 -154
-91 -12 0 -68 13 -123 28 l-101 29 -93 -70 c-105 -79 -106 -76 24 -98 l75 -13
63 41 c34 23 68 39 75 36 19 -7 14 -13 -65 -68 l-71 -48 -104 21 c-56 12 -111
22 -120 22 -24 0 -264 -205 -253 -216 2 -3 46 -8 97 -13 l93 -9 95 79 c58 48
99 75 109 72 8 -3 11 -9 6 -13 -4 -4 -51 -45 -103 -90 l-95 -82 -100 7 c-55 3
-110 9 -121 12 -17 3 -39 -13 -103 -79 -44 -46 -81 -86 -81 -90 0 -5 43 -8 96
-8 l96 0 57 50 c53 46 81 61 81 43 0 -4 -26 -33 -57 -65 l-57 -58 -128 0 -127
0 -70 -84 c-39 -46 -71 -87 -71 -91 0 -4 44 -5 97 -3 l97 5 51 57 c72 81 102
76 35 -6 -29 -35 -61 -69 -73 -75 -13 -8 -60 -13 -114 -13 -50 0 -103 -4 -116
-9 -25 -10 -153 -178 -143 -188 5 -6 169 15 189 23 6 3 31 30 55 60 53 67 89
76 41 10 -76 -107 -72 -104 -198 -118 -84 -9 -118 -17 -130 -30 -26 -28 -114
-178 -108 -184 10 -10 180 29 196 46 9 9 31 37 48 63 18 26 40 47 48 47 10 0
13 -5 9 -12 -18 -29 -85 -132 -88 -136 -2 -2 -57 -14 -122 -27 -64 -13 -121
-28 -125 -32 -16 -18 -110 -203 -102 -203 13 0 146 37 173 48 15 6 39 34 59
70 32 56 61 86 61 61 0 -5 -18 -43 -40 -83 l-41 -74 -82 -21 c-170 -43 -156
-33 -204 -146 -23 -55 -43 -104 -43 -108 0 -10 18 -5 121 35 75 28 76 29 104
89 28 58 50 87 60 77 3 -3 -11 -40 -30 -82 -33 -73 -38 -78 -87 -100 -29 -13
-83 -33 -120 -45 l-67 -22 -30 -85 c-17 -46 -34 -96 -37 -110 -8 -31 -2 -30
110 21 l72 33 28 71 c39 99 63 97 30 -3 -14 -40 -30 -80 -37 -88 -7 -8 -60
-35 -119 -59 -120 -48 -107 -32 -148 -182 -12 -44 -19 -81 -17 -84 6 -5 120
51 157 77 17 12 32 39 44 77 18 58 32 83 46 83 14 0 -39 -164 -57 -178 -10 -8
-62 -36 -115 -63 -54 -27 -98 -53 -98 -57 0 -4 -9 -53 -19 -109 -10 -57 -15
-103 -10 -103 10 0 102 55 145 87 25 18 33 35 44 88 13 62 24 84 37 72 3 -3
-3 -42 -12 -86 l-18 -81 -76 -49 c-42 -26 -90 -55 -107 -64 -31 -16 -32 -19
-44 -115 -18 -146 -19 -145 76 -74 l82 60 13 72 c11 64 23 90 35 78 2 -3 -1
-41 -7 -84 -13 -89 -12 -87 -140 -175 l-76 -52 -7 -75 c-3 -41 -6 -95 -6 -119
l0 -45 38 30 c110 88 121 102 132 177 10 63 23 96 33 84 2 -2 0 -41 -4 -86 -9
-92 -6 -87 -142 -197 l-57 -47 0 -115 c0 -62 4 -114 9 -114 5 0 41 30 80 68
l71 67 0 71 c0 51 4 75 15 84 13 11 15 1 15 -78 l0 -90 -92 -87 c-53 -49 -92
-94 -91 -104 1 -9 5 -60 8 -113 4 -54 10 -98 15 -98 4 0 37 34 74 76 l66 75 0
74 c0 103 16 102 25 -1 l7 -86 -38 -42 c-22 -22 -61 -64 -87 -92 l-49 -52 17
-103 c9 -57 20 -108 24 -112 4 -4 35 27 68 69 l61 76 -5 78 c-7 90 11 120 21
37 4 -28 9 -68 12 -87 5 -33 0 -44 -70 -129 -42 -52 -76 -103 -76 -113 0 -29
42 -208 49 -208 3 1 31 37 61 81 57 85 61 102 41 191 -6 26 -5 40 3 48 10 7
15 -5 24 -48 7 -31 14 -69 18 -83 5 -23 -38 -97 -130 -223 -8 -12 51 -226 63
-226 3 0 28 39 55 86 l49 86 -17 71 c-11 47 -13 74 -7 80 12 12 11 14 40 -87
l20 -69 -53 -86 c-28 -47 -58 -95 -65 -106 -11 -18 -8 -33 25 -119 22 -54 44
-99 49 -100 6 0 29 35 51 78 42 80 42 80 28 125 -40 126 -22 154 21 34 l29
-77 -57 -110 -56 -109 44 -96 c24 -52 48 -97 53 -99 5 -1 26 38 46 88 l36 90
-25 62 c-27 66 -31 92 -14 86 19 -6 71 -138 65 -164 -4 -14 -25 -67 -47 -119
l-41 -95 53 -95 c29 -52 56 -95 60 -95 7 0 32 60 58 142 11 33 9 42 -18 97
-17 33 -31 67 -31 76 0 32 20 12 56 -59 l39 -75 -39 -119 -39 -119 59 -91 c32
-51 62 -92 66 -92 10 0 38 94 45 151 4 38 1 54 -27 102 -51 91 -32 105 24 17
l49 -74 -30 -121 -30 -120 64 -87 c36 -49 68 -88 72 -88 7 0 22 57 37 143 5
32 1 46 -36 107 -23 38 -40 75 -38 82 3 7 30 -22 62 -65 l58 -76 -25 -118 -25
-118 22 -30 c39 -51 117 -135 126 -135 7 0 13 28 26 135 5 48 4 53 -42 113
-30 41 -43 67 -37 73 6 6 29 -15 64 -59 l55 -69 -15 -122 -14 -123 76 -76 c42
-42 80 -73 84 -69 4 4 9 48 11 97 l4 89 -53 61 c-35 40 -49 64 -43 70 7 7 31
-11 73 -54 l62 -65 -6 -93 c-3 -51 -8 -105 -10 -120 -4 -23 6 -36 68 -90 118
-104 107 -105 107 4 l0 94 -55 56 c-36 37 -53 62 -49 72 5 12 13 9 42 -18 21
-19 50 -44 65 -57 28 -24 28 -24 28 -146 l-1 -123 76 -60 c116 -92 115 -92
109 -23 -14 144 -12 138 -70 188 -48 40 -70 75 -49 75 4 0 37 -25 74 -55 l68
-54 6 -108 c4 -59 10 -115 15 -123 10 -19 179 -135 186 -128 4 3 -1 46 -9 94
-14 80 -19 91 -48 114 -64 49 -91 77 -87 88 2 7 34 -8 80 -39 l76 -50 12 -87
c23 -170 10 -150 155 -232 l59 -34 -7 51 c-3 28 -13 73 -21 99 -13 43 -22 54
-75 88 -33 21 -60 44 -60 52 0 8 2 14 4 14 14 0 148 -85 155 -98 5 -10 17 -61
27 -114 9 -54 20 -102 23 -107 8 -13 193 -102 199 -96 5 5 -22 111 -40 158 -7
18 -30 38 -70 59 -56 30 -78 51 -65 64 3 3 40 -13 84 -34 l78 -40 30 -111 c16
-62 32 -115 35 -120 5 -8 184 -81 199 -81 5 0 -4 40 -20 88 l-30 88 -69 34
c-39 19 -70 40 -70 47 0 7 2 13 5 13 14 0 142 -55 154 -66 8 -7 31 -61 51
-120 l37 -108 102 -34 c56 -19 104 -32 107 -30 2 3 -12 44 -32 91 l-36 86 -68
26 c-61 23 -100 55 -67 55 22 0 141 -42 155 -54 7 -7 32 -59 57 -117 l44 -104
78 -21 c43 -11 93 -24 110 -27 l33 -6 -41 82 c-23 45 -47 85 -53 90 -6 4 -37
15 -69 24 -33 9 -62 24 -68 35 -12 22 -16 22 85 -3 l84 -21 53 -106 c30 -59
54 -108 55 -110 3 -6 214 -39 214 -33 0 4 -20 41 -45 83 -48 82 -51 84 -154
104 -28 6 -51 28 -40 39 2 2 42 -4 87 -14 l84 -16 54 -90 c29 -50 58 -97 63
-106 6 -11 39 -19 111 -27 57 -7 105 -10 108 -8 2 3 -20 40 -49 83 l-54 78
-65 10 c-70 12 -90 20 -90 37 0 7 20 8 58 4 123 -15 115 -9 185 -115 l65 -98
54 -6 c66 -8 158 -9 158 -1 0 7 -84 116 -106 138 -9 9 -34 16 -57 17 -56 1
-89 11 -95 28 -7 20 154 7 177 -13 9 -8 43 -51 76 -95 l60 -81 108 0 c59 0
107 3 107 6 0 4 -27 37 -61 75 l-61 69 -63 0 c-44 0 -68 5 -79 16 -9 8 -16 17
-16 20 0 2 39 4 88 4 l87 -1 79 -90 79 -91 91 7 c50 4 97 10 104 14 9 5 -7 26
-52 69 l-64 62 -75 0 c-55 0 -76 4 -80 14 -7 18 22 26 103 26 l65 0 82 -82 82
-82 101 15 c55 8 101 19 101 24 1 6 -30 35 -67 66 l-69 56 -68 -6 c-47 -5 -71
-3 -78 5 -13 16 -4 20 66 28 33 4 67 9 76 12 10 3 51 -26 109 -77 l93 -82 100
22 c55 12 103 24 106 27 6 6 -16 24 -96 81 l-53 36 -67 -10 c-54 -9 -71 -8
-82 3 -12 11 -10 14 15 19 16 4 45 11 64 16 68 17 85 12 182 -61 51 -38 100
-68 108 -66 8 3 55 16 103 31 l88 26 -23 18 c-13 11 -49 35 -81 54 l-58 35
-65 -15 c-63 -14 -94 -13 -94 5 0 4 37 18 83 30 l82 21 80 -51 c140 -90 117
-85 228 -43 54 21 94 41 90 46 -4 4 -43 26 -85 49 l-78 42 -65 -22 c-60 -20
-85 -20 -85 -1 0 4 35 20 78 35 l78 27 84 -46 c45 -26 92 -53 104 -60 19 -13
31 -10 111 26 50 23 94 45 99 50 6 5 -25 25 -77 49 l-86 39 -67 -25 c-46 -17
-70 -22 -77 -15 -14 14 -14 13 71 49 l74 31 110 -52 111 -51 94 49 c109 56
109 56 -13 101 l-74 27 -58 -26 c-72 -32 -83 -35 -89 -20 -2 6 29 28 69 48
l73 37 117 -44 116 -45 86 55 c47 29 86 58 86 63 0 4 -39 21 -87 35 l-86 27
-62 -33 c-41 -22 -68 -31 -81 -26 -15 6 -4 16 59 52 l77 46 115 -36 c64 -20
121 -34 128 -30 28 16 166 119 167 125 0 3 -42 15 -94 28 l-93 22 -63 -40
c-66 -43 -75 -46 -84 -32 -3 4 26 31 65 59 79 57 66 56 224 17 l90 -23 80 65
c44 36 81 69 83 73 3 9 -13 13 -120 31 l-66 11 -55 -41 c-49 -37 -88 -52 -87
-33 1 6 98 88 124 104 6 3 64 -2 129 -13 l119 -19 79 71 c43 40 79 75 79 79 0
9 -78 20 -145 20 -48 0 -58 -4 -106 -44 -60 -50 -99 -53 -52 -4 15 17 45 43
66 60 l38 30 117 -12 117 -12 78 82 c42 46 77 87 77 91 0 5 -42 9 -93 9 l-94
0 -62 -56 c-84 -76 -97 -57 -18 26 l61 65 122 0 c84 0 126 4 137 13 8 7 44 50
78 94 l63 81 -100 -6 -99 -7 -55 -60 c-50 -54 -80 -74 -80 -52 0 4 25 38 55
74 l55 66 68 7 c37 3 94 9 127 13 l60 7 63 93 c35 51 61 96 58 99 -3 3 -47 -2
-97 -10 -85 -14 -95 -18 -118 -49 -50 -64 -78 -91 -89 -87 -18 6 84 146 110
152 13 3 61 11 108 18 47 6 95 15 107 20 21 8 140 202 125 206 -4 1 -47 -8
-97 -20 -89 -22 -89 -22 -128 -77 -21 -30 -42 -62 -47 -70 -6 -10 -12 -12 -19
-5 -9 9 40 103 77 147 7 9 66 28 132 44 l119 28 50 105 c30 65 45 107 38 109
-7 1 -50 -10 -97 -26 l-85 -29 -39 -71 c-22 -40 -45 -72 -53 -72 -19 0 -17 7
30 94 l42 80 110 34 c61 18 116 39 123 46 23 23 92 211 78 214 -7 1 -48 -12
-92 -31 -78 -33 -79 -34 -116 -102 -20 -38 -42 -71 -49 -74 -14 -4 -13 -2 29
102 l27 67 117 46 118 46 30 102 c17 55 33 107 35 114 6 18 -3 16 -97 -30 -58
-27 -90 -49 -94 -62 -23 -73 -47 -126 -59 -126 -10 0 -6 22 16 88 l30 89 109
49 c124 55 110 37 148 202 11 45 16 82 11 82 -5 0 -46 -22 -92 -49 l-84 -50
-18 -68 c-10 -37 -21 -72 -26 -77 -17 -19 -21 4 -10 51 33 132 22 117 140 184
l109 60 11 62 c6 34 14 88 17 121 6 49 5 57 -7 50 -8 -5 -46 -31 -85 -57 -72
-48 -72 -49 -83 -110 -17 -86 -21 -97 -35 -97 -11 0 -10 16 1 82 8 46 20 89
26 97 6 7 52 41 102 74 49 33 91 61 93 62 6 4 24 227 19 232 -6 5 -132 -88
-153 -114 -7 -8 -15 -43 -19 -78 -4 -36 -13 -69 -21 -76 -13 -10 -14 -1 -8 72
8 97 8 99 123 185 69 51 80 64 86 98 8 45 -4 336 -14 336 -4 0 -37 -30 -74
-68 l-67 -68 0 -79 c0 -117 -11 -215 -24 -215 -8 0 -10 47 -6 159 l5 160 84
77 84 78 -7 115 c-3 63 -9 117 -12 120 -3 3 -35 -25 -69 -64 l-64 -70 -3 -84
c-4 -116 -23 -118 -31 -4 l-5 88 46 53 c26 29 63 72 84 95 l36 42 -14 90 c-8
50 -17 101 -20 115 l-6 25 -24 -30 c-14 -16 -42 -53 -64 -81 l-40 -50 9 -70
c7 -51 6 -72 -4 -82 -9 -11 -14 1 -23 57 -7 38 -12 79 -12 91 0 11 34 63 76
115 l76 95 -27 110 c-15 61 -30 110 -34 110 -4 0 -31 -36 -60 -79 l-53 -79 13
-76 c11 -66 9 -99 -6 -85 -2 3 -13 42 -23 87 l-19 82 68 101 69 102 -25 84
c-47 153 -39 148 -95 57 -55 -87 -57 -97 -35 -168 18 -59 19 -89 3 -84 -6 2
-22 39 -34 83 l-24 78 61 105 62 105 -17 51 c-8 28 -29 78 -45 111 l-29 60
-42 -88 -43 -88 23 -75 c13 -40 20 -77 17 -81 -11 -11 -22 7 -51 82 l-27 70
50 109 c28 59 51 113 51 120 0 21 -94 206 -101 199 -9 -10 -69 -165 -69 -180
0 -6 13 -41 29 -77 19 -40 26 -68 20 -72 -13 -8 -10 -11 -53 74 l-36 72 36 98
c20 53 41 105 46 115 7 13 -4 41 -48 117 -31 55 -59 100 -63 100 -7 0 -37 -87
-52 -149 -6 -29 -2 -46 27 -104 22 -42 32 -73 26 -79 -11 -11 -20 -1 -64 82
l-36 65 34 115 c39 133 41 124 -43 241 -37 52 -59 75 -64 67 -4 -7 -15 -48
-24 -91 l-17 -78 41 -71 c43 -74 46 -84 32 -92 -5 -3 -32 30 -61 74 l-52 79
21 91 c12 50 26 101 31 115 8 20 1 34 -42 92 -57 77 -88 113 -99 113 -3 0 -14
-40 -24 -89 l-17 -89 46 -63 c25 -35 45 -67 43 -72 -6 -20 -23 -9 -60 38 -72
93 -68 77 -43 205 l23 115 -25 30 c-53 64 -133 147 -138 143 -2 -3 -7 -47 -10
-99 l-6 -94 46 -59 c44 -56 53 -80 31 -75 -6 1 -35 30 -65 64 l-56 63 14 112
c11 91 12 117 1 134 -16 27 -147 151 -154 145 -2 -3 -8 -44 -11 -92 l-7 -86
52 -59 c78 -91 66 -111 -17 -29 l-69 68 5 122 5 122 -79 64 c-44 36 -85 69
-91 74 -10 7 -13 -11 -13 -83 l0 -92 60 -62 c33 -35 60 -66 60 -69 0 -18 -28
-3 -85 46 l-63 52 -6 115 c-4 63 -10 122 -15 130 -4 8 -44 41 -87 72 -91 66
-91 66 -79 -58 l7 -72 59 -48 c52 -42 74 -74 51 -74 -10 0 -135 90 -144 104
-4 6 -8 38 -9 71 0 33 -4 84 -7 114 l-7 55 -95 57 c-52 32 -96 54 -98 49 -2
-5 3 -47 12 -92 14 -76 19 -86 52 -113 78 -63 87 -72 83 -83 -2 -7 -34 8 -79
37 l-75 49 -20 118 -20 119 -98 54 c-54 29 -100 52 -102 49 -2 -2 5 -44 16
-92 l21 -88 69 -44 c38 -25 69 -49 69 -54 0 -21 -19 -15 -90 25 l-75 44 -30
118 -30 118 -95 42 c-52 23 -100 42 -107 42 -7 1 -1 -31 19 -89 l30 -91 69
-35 c39 -19 69 -41 69 -49 0 -8 -2 -15 -4 -15 -2 0 -42 17 -88 38 l-83 39 -37
114 -36 114 -103 36 c-57 20 -106 35 -107 34 -6 -6 60 -164 72 -173 6 -5 37
-19 69 -32 52 -21 78 -42 65 -55 -2 -3 -42 10 -89 28 l-84 33 -44 111 -44 111
-104 28 c-57 15 -106 25 -109 22 -3 -3 13 -42 35 -86 l40 -80 68 -22 c74 -24
88 -33 79 -48 -7 -12 -166 33 -178 50 -5 7 -30 57 -56 110 l-47 97 -68 16
c-38 8 -89 18 -114 22 l-46 6 34 -60 c57 -100 59 -102 132 -122 68 -19 97 -35
84 -47 -3 -4 -45 1 -92 11 l-86 18 -63 106 -62 106 -84 12 c-47 6 -98 12 -113
12 l-28 1 18 -31 c10 -16 34 -51 53 -77 33 -43 40 -47 110 -62 56 -12 76 -20
78 -34 3 -13 -1 -17 -15 -13 -10 3 -48 9 -86 13 -77 7 -79 9 -162 136 l-49 76
-109 7 c-59 4 -111 5 -114 2 -3 -3 20 -37 51 -75 53 -67 57 -70 108 -77 88
-10 106 -16 112 -32 6 -14 -2 -15 -61 -10 -38 4 -80 7 -94 7 -21 0 -41 18
-100 95 l-74 94 -118 1 -119 0 51 -59 c71 -82 72 -82 160 -88 54 -4 82 -10 85
-19 4 -11 -14 -14 -92 -14 l-97 0 -80 90 c-44 49 -84 89 -90 88 -5 0 -55 -5
-109 -9z m639 -230 c554 -47 1077 -206 1547 -469 146 -82 390 -248 538 -366
226 -182 494 -460 667 -694 373 -505 622 -1123 698 -1731 103 -835 -60 -1634
-483 -2359 -251 -431 -649 -866 -1062 -1160 -262 -187 -576 -358 -850 -463
-281 -108 -595 -185 -910 -224 -180 -22 -665 -25 -835 -5 -372 44 -688 124
-1020 259 -738 298 -1364 820 -1791 1494 -99 156 -235 422 -304 594 -313 781
-353 1654 -111 2456 172 570 470 1076 885 1506 672 697 1546 1102 2511 1166
119 8 410 6 520 -4z"/>
<path d="M4815 8700 c-767 -65 -1425 -328 -2028 -811 -574 -461 -1004 -1107
-1207 -1816 -179 -628 -181 -1306 -5 -1948 110 -402 312 -814 566 -1156 652
-876 1614 -1409 2689 -1489 728 -54 1460 110 2076 466 300 173 529 350 790
609 484 481 809 1066 968 1740 68 291 90 510 83 864 -5 308 -19 436 -73 686
-148 679 -488 1300 -977 1787 -589 587 -1327 946 -2159 1053 -144 19 -575 28
-723 15z m724 -134 c693 -93 1324 -372 1856 -821 141 -119 367 -350 475 -485
358 -450 616 -1025 709 -1585 39 -235 46 -326 45 -595 0 -282 -12 -408 -60
-650 -133 -672 -466 -1301 -944 -1780 -594 -596 -1300 -940 -2135 -1042 -69
-8 -214 -13 -390 -12 -231 0 -309 4 -445 22 -941 127 -1744 585 -2341 1337
-500 629 -757 1407 -736 2220 18 678 211 1282 594 1856 268 402 639 761 1058
1022 490 305 1017 479 1615 531 105 9 590 -3 699 -18z"/>
<path d="M4860 7919 c-897 -78 -1662 -504 -2200 -1225 -92 -123 -238 -350
-247 -383 -4 -17 -1 -21 20 -21 55 0 322 -51 389 -74 113 -40 140 -77 218
-302 60 -173 25 -154 280 -154 121 0 220 1 220 3 0 1 -9 20 -20 42 -11 22 -20
51 -20 65 0 14 31 75 68 135 53 87 76 114 105 128 37 19 38 19 135 -11 l99
-29 39 36 c21 20 69 63 107 96 l67 61 -22 104 c-30 145 -30 145 142 237 109
59 141 72 165 67 19 -4 57 -33 107 -82 l77 -75 113 27 c62 15 122 29 134 31
16 4 25 22 44 97 17 68 31 101 51 121 l27 27 160 0 c154 0 160 -1 185 -24 14
-13 31 -43 37 -67 36 -140 40 -149 68 -155 79 -18 184 -45 206 -54 23 -8 32
-2 103 70 104 106 114 106 284 13 155 -85 160 -94 130 -223 -12 -48 -21 -94
-21 -101 0 -8 46 -57 103 -110 l103 -96 89 29 c96 31 144 31 176 2 10 -9 48
-67 84 -129 70 -121 78 -156 45 -198 -11 -14 -20 -28 -20 -31 0 -3 93 -6 208
-5 l207 0 75 156 c90 187 122 227 193 248 51 15 369 55 434 55 18 0 33 4 33
10 0 32 -180 314 -316 495 -438 582 -1097 1000 -1799 1140 -267 53 -625 76
-865 54z m435 -159 c523 -39 971 -191 1407 -478 149 -99 285 -212 430 -359
158 -159 245 -264 349 -417 72 -106 79 -121 63 -127 -11 -4 -22 -8 -25 -8 -3
-1 -33 34 -67 77 -96 122 -148 166 -67 57 98 -131 102 -145 47 -145 -22 0 -40
16 -91 80 -35 44 -71 86 -80 93 -14 10 -14 10 -5 -3 85 -112 124 -174 112
-181 -30 -20 -55 -7 -116 58 l-62 68 50 -75 51 -75 -29 -14 c-32 -15 -31 -16
-121 89 -30 34 -11 0 35 -64 l35 -50 -25 -24 -25 -25 -28 34 c-15 19 -43 50
-61 69 -32 33 -31 32 6 -20 63 -88 66 -97 44 -125 l-19 -24 -53 62 c-97 113
-100 112 -19 -5 52 -76 56 -89 36 -126 -13 -22 -15 -20 -81 62 -94 119 -99
116 -16 -8 71 -105 71 -105 55 -136 -8 -16 -17 -30 -19 -30 -2 0 -36 43 -75
95 -40 52 -77 97 -82 101 -5 3 19 -39 54 -93 92 -141 90 -138 76 -178 -7 -19
-15 -35 -19 -35 -3 0 -18 23 -33 51 -31 55 -141 204 -159 215 -6 4 3 -14 21
-39 54 -79 27 -52 -37 36 -119 164 -337 361 -535 484 -593 367 -1382 413
-2012 119 -204 -96 -404 -237 -576 -406 -101 -100 -263 -295 -339 -407 -19
-29 -38 -53 -42 -53 -3 0 -9 14 -13 30 -7 33 8 64 95 195 85 128 65 114 -51
-37 -57 -75 -79 -92 -79 -65 0 6 -3 21 -6 33 -4 15 13 49 60 119 69 103 57
102 -26 -3 -27 -34 -54 -60 -58 -57 -5 3 -11 18 -15 35 -5 24 2 42 45 107 43
64 46 72 18 43 -18 -19 -45 -50 -60 -69 l-26 -34 -17 33 -17 33 42 61 43 61
-51 -49 c-50 -49 -52 -49 -72 -31 -27 24 -26 29 16 89 l36 51 -49 -52 -48 -52
-28 20 -27 21 37 51 36 52 -49 -47 c-48 -46 -51 -47 -81 -36 l-32 12 24 33
c69 91 72 103 13 40 -56 -61 -66 -68 -91 -62 -15 4 -27 12 -27 18 0 6 23 42
50 81 l51 71 -73 -76 c-57 -59 -78 -75 -95 -72 -13 3 -23 9 -23 14 0 15 131
207 201 294 89 111 278 297 406 400 425 341 905 543 1448 609 213 26 345 30
540 16z"/>
<path d="M4828 7641 c-53 -3 -102 -11 -108 -17 -9 -9 -5 -93 29 -534 l6 -85
130 2 c72 1 145 5 163 8 28 5 32 10 32 38 0 18 -3 43 -7 56 -6 23 -8 24 -95
18 -103 -7 -108 -3 -108 87 l0 55 69 7 c39 3 72 12 74 18 3 6 2 29 -2 51 l-7
40 -69 0 -70 0 -9 57 c-12 77 -4 85 90 90 42 2 78 9 82 15 4 6 6 32 4 57 l-4
46 -52 -2 c-28 -1 -95 -4 -148 -7z"/>
<path d="M5530 7608 c-5 -13 -20 -77 -34 -144 -14 -66 -30 -132 -35 -146 -5
-14 -8 -28 -5 -31 3 -2 -9 -60 -26 -127 -17 -68 -29 -128 -27 -134 3 -7 29
-18 58 -24 67 -16 69 -13 94 105 28 136 28 137 76 130 23 -3 46 -10 51 -15 7
-7 0 -51 -18 -127 -26 -110 -26 -119 -11 -130 27 -20 99 -28 112 -13 18 20
130 587 119 598 -13 13 -100 29 -112 21 -5 -3 -19 -52 -31 -109 -11 -57 -23
-108 -27 -113 -7 -12 -75 -1 -92 15 -10 10 -9 29 8 101 26 109 24 136 -10 145
-81 21 -80 21 -90 -2z"/>
<path d="M4419 7574 l-46 -14 -17 -103 c-32 -183 -35 -186 -67 -52 -13 52 -26
100 -30 106 -8 14 -115 -7 -122 -24 -2 -7 12 -70 31 -142 19 -71 53 -202 77
-290 47 -178 46 -176 124 -155 48 13 49 19 21 124 -16 55 -18 80 -10 100 5 14
13 26 17 26 5 -1 31 -37 58 -81 28 -44 60 -89 72 -100 21 -20 23 -20 77 -5 30
9 58 21 61 27 9 13 -21 55 -134 193 -49 60 -87 114 -85 120 12 32 62 272 58
278 -7 11 -31 8 -85 -8z"/>
<path d="M6095 7414 c-14 -31 -25 -58 -25 -60 0 -3 -31 -68 -69 -147 -82 -168
-97 -217 -82 -273 12 -46 60 -97 113 -118 47 -20 120 -20 157 -2 30 16 91 80
91 96 0 5 41 96 90 201 50 106 90 196 90 201 0 14 -111 62 -119 52 -5 -5 -36
-72 -71 -149 -81 -182 -130 -278 -144 -287 -32 -21 -76 6 -76 47 0 12 15 56
34 96 107 229 155 342 150 350 -8 13 -80 49 -99 49 -9 0 -25 -23 -40 -56z"/>
<path d="M3858 7370 c-20 -11 -39 -24 -42 -29 -3 -4 41 -107 98 -227 57 -121
115 -245 129 -276 14 -32 31 -58 37 -58 26 0 100 43 100 59 0 10 -56 136 -124
282 -92 195 -129 265 -143 266 -10 1 -35 -6 -55 -17z"/>
<path d="M6546 7053 c-59 -82 -115 -159 -125 -173 -86 -118 -121 -170 -121
-183 0 -16 110 -101 177 -137 114 -61 251 23 261 161 4 50 7 58 27 63 61 15
124 105 125 174 0 61 -28 100 -125 173 -50 38 -97 69 -103 69 -5 0 -58 -66
-116 -147z"/>
<path d="M3449 7140 c-46 -28 -93 -59 -103 -70 -18 -18 -18 -19 0 -49 92 -148
142 -227 161 -254 12 -18 50 -78 85 -134 35 -57 68 -103 75 -103 28 0 197 115
224 153 68 94 13 235 -106 274 -25 8 -29 15 -27 37 7 65 -46 158 -104 182 -65
27 -113 19 -205 -36z"/>
<path d="M3255 6628 c-77 -42 -51 -148 37 -148 28 0 42 7 57 26 29 37 26 70
-8 105 -31 31 -53 35 -86 17z"/>
<path d="M6914 6628 c-24 -11 -44 -48 -44 -79 0 -24 46 -69 71 -69 31 0 66 21
78 47 16 35 14 48 -15 82 -27 32 -53 38 -90 19z"/>
<path d="M4956 6768 c-8 -13 -26 -63 -40 -112 -14 -50 -29 -93 -33 -97 -5 -3
-48 -14 -98 -24 -49 -9 -116 -26 -150 -36 l-60 -19 -70 73 c-102 107 -97 106
-207 51 -148 -74 -168 -89 -168 -125 0 -18 10 -72 21 -122 l21 -90 -33 -25
c-19 -14 -74 -65 -124 -113 l-90 -86 -90 28 c-147 45 -141 47 -218 -80 -39
-64 -67 -120 -67 -136 0 -18 12 -39 35 -62 33 -33 39 -35 83 -29 68 8 269 -10
327 -29 28 -10 68 -30 90 -45 l40 -28 40 55 c92 126 288 285 432 350 138 61
279 97 423 107 84 5 50 -4 -81 -23 -280 -39 -554 -206 -722 -440 -57 -79 -58
-80 -41 -105 9 -15 20 -26 23 -26 4 0 25 26 47 58 46 67 136 166 179 194 17
11 2 -5 -32 -36 -74 -68 -187 -231 -177 -255 16 -38 35 -101 52 -176 16 -72
20 -80 42 -82 23 -2 23 -2 5 6 -33 16 -12 13 168 -24 188 -38 247 -53 247 -62
0 -22 -25 -83 -34 -82 -29 2 -348 115 -346 123 2 10 -20 26 -37 26 -11 0 -12
-54 -1 -66 4 -3 91 -33 195 -67 l188 -62 0 -40 0 -39 -70 -23 c-107 -36 -101
-32 -79 -48 18 -12 29 -11 90 10 38 13 69 23 70 22 1 -1 8 -23 17 -49 l15 -47
-56 -13 c-51 -11 -101 -42 -89 -55 3 -2 37 3 76 12 78 19 96 16 112 -19 10
-21 -1 -42 -112 -210 l-123 -187 -44 43 c-56 55 -107 123 -158 212 -34 61 -44
71 -65 68 -13 -2 -28 -7 -33 -12 -13 -13 72 -167 137 -247 114 -142 300 -263
482 -315 68 -19 104 -23 240 -23 136 0 173 3 245 23 256 70 480 253 599 489
17 34 31 67 31 73 0 5 -16 10 -34 10 -33 0 -37 -4 -72 -70 -32 -62 -134 -193
-176 -227 -19 -16 -16 -20 -158 185 -108 157 -112 164 -99 189 19 36 31 38
116 19 42 -9 78 -15 80 -13 14 15 -16 36 -66 47 -83 17 -86 20 -71 66 7 22 15
42 19 45 3 4 33 -2 66 -12 33 -11 69 -18 79 -17 33 5 29 26 -6 33 -18 4 -57
16 -86 27 -52 19 -53 21 -50 56 l3 37 192 63 c193 64 205 71 208 117 1 6 6 19
12 30 6 11 19 56 28 100 10 44 26 101 36 127 l18 46 -50 74 c-28 40 -83 107
-122 148 l-72 75 78 -75 c43 -41 99 -103 125 -137 25 -35 48 -63 51 -62 3 1
27 25 54 54 l47 52 -60 84 c-182 256 -473 448 -775 512 -51 11 -61 16 -35 16
48 1 190 -32 280 -64 251 -91 471 -259 612 -466 26 -40 37 -48 53 -43 93 29
136 35 270 39 l150 4 33 35 c17 20 32 39 32 44 0 11 -118 212 -138 235 -21 24
-54 22 -162 -13 l-94 -29 -49 55 c-27 30 -81 81 -122 114 l-72 59 23 98 c32
131 31 138 -13 166 -55 35 -218 117 -231 117 -7 0 -49 -38 -94 -85 l-83 -85
-50 16 c-27 8 -97 26 -155 38 l-104 22 -27 92 c-44 156 -24 142 -199 142 -144
0 -150 -1 -164 -22z m299 -20 c7 -7 23 -56 35 -108 12 -52 26 -99 30 -103 4
-4 57 -19 118 -33 62 -14 138 -34 169 -45 l58 -20 64 68 c36 37 69 67 74 65 4
-1 6 2 3 7 -8 12 16 30 37 27 27 -4 30 -14 8 -28 -12 -7 -21 -17 -21 -22 0 -4
11 -1 24 7 23 15 24 15 19 -4 -3 -11 -17 -28 -31 -39 -15 -12 -19 -20 -11 -21
12 0 12 -1 0 -6 -11 -5 -11 -7 0 -14 11 -7 12 -12 2 -29 -7 -11 -13 -26 -13
-34 0 -8 6 -16 13 -19 10 -3 10 -9 0 -26 -18 -29 -16 -45 7 -66 10 -9 24 -33
30 -51 7 -20 16 -31 22 -28 7 4 8 2 4 -5 -6 -8 -16 -6 -40 8 -113 70 -285 136
-447 173 -90 20 -131 23 -299 23 -216 0 -284 -10 -465 -70 -55 -18 -107 -35
-115 -36 -8 -2 -17 -7 -20 -10 -10 -12 -90 -49 -90 -42 0 5 -5 1 -11 -7 -9
-13 -10 -13 -6 0 2 8 10 15 18 15 16 0 19 26 4 38 -5 5 3 6 20 3 17 -4 25 -3
18 1 -17 12 -34 63 -28 83 3 9 -2 34 -10 54 -9 21 -12 35 -6 32 5 -4 15 2 20
13 8 14 7 22 -6 32 -14 12 -16 12 -8 0 5 -9 4 -12 -3 -7 -6 3 -13 -2 -15 -11
-4 -14 -2 34 2 56 1 2 8 -2 16 -9 8 -7 15 -9 15 -5 0 4 7 2 15 -5 8 -7 12 -17
8 -24 -3 -6 -2 -8 2 -3 5 4 29 -13 54 -37 l46 -45 77 24 c43 14 118 33 168 43
50 10 94 22 99 28 5 5 19 45 31 89 36 137 34 133 99 138 93 7 203 0 216 -15z
m-209 -920 c-8 -81 -26 -336 -26 -365 0 -17 -9 -25 -41 -35 -36 -10 -43 -10
-54 5 -6 9 -65 78 -131 153 -162 186 -152 167 -99 199 85 49 250 102 328 104
l29 1 -6 -62z m98 -65 c4 -71 9 -170 12 -220 l6 -93 -52 0 -53 0 6 83 c4 45
10 144 13 220 l7 137 27 0 28 0 6 -127z m224 91 c74 -25 151 -61 187 -87 18
-14 14 -21 -100 -152 -66 -76 -131 -151 -145 -167 -25 -29 -26 -30 -68 -18
-28 9 -42 19 -42 30 0 27 -19 330 -25 384 l-4 49 62 -7 c34 -4 95 -18 135 -32z
m-600 -293 l141 -164 -41 -29 c-22 -16 -44 -26 -48 -21 -10 10 -64 88 -167
241 -73 107 -75 113 -57 127 10 8 22 13 25 12 4 -1 70 -76 147 -166z m863 153
c21 -19 25 -12 -139 -241 l-94 -132 -39 26 c-22 14 -39 28 -39 30 0 7 282 333
288 333 3 0 13 -7 23 -16z m-957 -225 c58 -86 108 -164 112 -172 3 -9 -4 -29
-15 -46 l-21 -29 -53 14 c-28 7 -122 28 -207 45 -85 17 -160 32 -167 34 -30
10 70 181 160 272 48 49 64 60 73 50 6 -6 59 -82 118 -168z m1063 129 c60 -65
100 -123 143 -207 32 -65 31 -80 -10 -81 -8 0 -100 -20 -205 -45 l-190 -44
-22 27 c-12 15 -22 32 -20 38 3 16 240 364 247 364 4 0 29 -24 57 -52z m-464
-242 c75 -36 139 -102 179 -184 29 -59 33 -76 33 -152 0 -97 -17 -151 -69
-224 -75 -106 -197 -162 -332 -154 -132 8 -246 85 -308 208 -73 146 -52 299
57 417 81 88 170 124 298 120 69 -2 96 -8 142 -31z m657 -86 c0 -5 -3 -9 -7
-7 -5 1 -18 -7 -30 -18 -12 -11 -28 -25 -35 -31 -16 -12 -331 -120 -338 -115
-3 2 -10 21 -17 43 -14 48 -25 42 187 91 85 19 164 38 175 40 36 8 65 7 65 -3z
m-1032 -620 c-2 -5 -58 -73 -125 -152 -67 -78 -128 -151 -136 -162 -11 -16
-17 -17 -36 -7 -12 7 -21 18 -19 24 2 7 57 92 122 189 l119 177 39 -31 c21
-17 38 -34 36 -38z m631 -119 c120 -167 123 -172 105 -192 -9 -11 -21 -18 -25
-17 -4 2 -71 77 -149 168 l-142 164 34 28 c18 15 38 26 43 24 6 -1 66 -80 134
-175z m-512 73 c2 -9 33 -410 33 -433 0 -38 -286 48 -388 117 -10 7 17 44 109
148 67 76 133 153 147 170 23 30 26 30 60 18 20 -6 37 -16 39 -20z m404 -129
c79 -90 145 -168 147 -173 9 -27 -247 -127 -343 -133 l-50 -4 3 70 c2 39 7
129 13 200 5 72 9 140 9 152 0 16 10 27 33 37 17 8 35 15 38 15 3 1 70 -73
150 -164z m-265 3 c-16 -312 -16 -318 -42 -318 -27 0 -30 13 -39 175 -3 61 -8
147 -12 193 l-6 82 53 0 53 0 -7 -132z"/>
<path d="M5020 5375 c-64 -18 -139 -64 -177 -109 -115 -136 -111 -335 8 -462
113 -119 268 -151 412 -85 70 31 123 86 162 165 32 63 36 81 36 147 0 85 -10
123 -45 183 -78 132 -249 202 -396 161z m228 -46 c62 -30 119 -90 151 -158 36
-76 37 -191 2 -268 -61 -137 -222 -216 -363 -178 -102 26 -162 77 -216 179
-35 68 -38 186 -5 257 40 89 122 160 213 186 61 17 162 9 218 -18z"/>
<path d="M5035 5221 c-53 -24 -112 -91 -121 -136 -10 -55 1 -133 23 -163 11
-15 42 -40 68 -57 99 -61 234 -26 285 75 42 82 34 162 -23 227 -61 69 -152 91
-232 54z m133 -65 c68 -35 93 -104 62 -173 -43 -98 -185 -100 -235 -3 -55 107
67 231 173 176z"/>
<path d="M1820 5713 c0 -5 20 -34 45 -65 76 -98 178 -168 294 -202 46 -13 112
-16 410 -16 196 0 362 4 368 8 9 6 -7 23 -52 56 -77 56 -136 122 -165 182
l-22 44 -439 0 c-241 0 -439 -3 -439 -7z"/>
<path d="M2740 5711 c0 -21 94 -134 147 -176 71 -57 197 -119 283 -140 46 -12
136 -19 310 -23 201 -6 249 -10 268 -23 21 -15 16 -16 -90 -22 -62 -4 -193 -7
-291 -7 -138 0 -178 -3 -175 -12 3 -7 32 -34 66 -60 97 -74 126 -77 394 -43
213 26 222 27 235 10 7 -10 12 -20 10 -21 -3 -4 -283 -50 -354 -59 -29 -4 -53
-10 -53 -14 0 -10 47 -44 100 -72 60 -32 167 -30 302 4 93 23 98 23 113 6 15
-16 13 -18 -38 -33 -29 -8 -78 -21 -108 -28 -30 -6 -56 -13 -58 -15 -10 -7 29
-38 74 -59 58 -28 147 -31 209 -9 34 12 42 12 60 0 19 -14 19 -15 -15 -28 -19
-8 -41 -17 -49 -20 -10 -3 1 -12 30 -26 45 -21 137 -27 188 -12 22 6 18 10
-38 46 -96 62 -169 156 -261 335 -114 223 -170 251 -544 276 -252 16 -376 33
-457 64 -53 19 -128 73 -128 91 0 12 926 11 1015 -1 91 -14 160 -52 202 -114
34 -50 38 -61 72 -211 24 -101 84 -236 139 -307 20 -27 62 -69 94 -95 34 -27
58 -54 58 -65 0 -21 -42 -42 -105 -53 -82 -13 -89 -15 -76 -28 6 -6 52 -13
104 -15 101 -4 138 10 173 62 l16 26 -115 112 c-100 99 -120 123 -155 198 -24
49 -52 131 -67 195 -34 144 -51 188 -97 246 -49 62 -136 106 -238 119 -95 12
-1150 13 -1150 1z"/>
<path d="M6332 5709 c-74 -9 -154 -44 -203 -87 -52 -46 -84 -113 -117 -248
-54 -221 -102 -307 -243 -437 -49 -45 -89 -89 -89 -98 0 -24 46 -66 87 -80 39
-13 159 -7 174 8 6 6 -18 18 -66 32 -107 32 -110 45 -30 115 105 93 182 228
220 386 36 151 45 178 77 226 39 58 113 100 203 114 33 6 278 10 544 10 l485
0 -30 -31 c-76 -80 -206 -112 -545 -134 -251 -16 -315 -27 -395 -68 -68 -35
-100 -74 -167 -203 -31 -60 -70 -129 -86 -154 -43 -63 -148 -167 -200 -198
l-45 -26 35 -9 c49 -13 158 -3 199 18 l35 18 -40 14 c-73 24 -70 22 -48 38 18
13 27 13 67 -1 71 -25 162 -16 222 21 26 17 49 35 51 40 2 6 -38 21 -89 33
-114 28 -129 35 -108 56 13 12 27 11 110 -10 188 -49 262 -42 365 33 l50 37
-115 16 c-63 9 -159 25 -212 35 -92 16 -97 18 -87 37 12 23 -4 24 264 -12 181
-24 207 -24 271 -5 50 15 137 75 160 110 13 20 11 20 -129 17 -78 -2 -212 -1
-297 3 l-154 7 34 19 c31 16 61 18 245 19 129 0 239 6 286 14 176 32 351 142
443 280 14 21 26 42 26 47 0 10 -1078 9 -1158 -2z"/>
<path d="M7512 5674 c-28 -56 -102 -136 -176 -189 -31 -22 -56 -44 -56 -48 0
-4 172 -7 383 -5 370 3 384 4 438 26 70 28 163 87 208 133 39 39 91 108 91
121 0 4 -195 8 -433 8 l-433 0 -22 -46z"/>
<path d="M2220 5391 c0 -5 25 -32 55 -59 61 -56 137 -96 203 -107 41 -7 642
11 689 21 21 4 21 5 -13 55 -19 28 -34 54 -34 58 0 3 -14 14 -31 24 -28 15
-69 17 -450 17 -241 0 -419 -4 -419 -9z"/>
<path d="M7148 5377 c-31 -18 -115 -124 -106 -132 2 -2 155 -8 340 -15 362
-14 385 -12 477 35 48 24 151 110 151 126 0 5 -172 9 -412 9 -408 -1 -413 -1
-450 -23z"/>
<path d="M2935 5199 c-121 -4 -272 -11 -335 -15 l-115 -6 60 -56 c72 -67 164
-112 243 -119 39 -4 158 9 364 37 293 41 307 44 297 62 -10 19 -24 26 -94 48
-22 6 -57 23 -77 36 -26 17 -50 24 -80 22 -24 0 -142 -5 -263 -9z"/>
<path d="M6935 5175 c-32 -19 -76 -37 -97 -40 -22 -4 -44 -16 -53 -28 -8 -11
-13 -22 -12 -24 4 -3 231 -36 447 -64 102 -13 188 -18 225 -15 79 8 171 54
243 121 l57 54 -40 1 c-22 0 -186 7 -365 15 -179 8 -329 14 -335 14 -5 0 -37
-16 -70 -34z"/>
<path d="M3161 5004 c-161 -23 -296 -46 -299 -49 -20 -20 179 -122 264 -135
77 -12 78 -12 623 115 22 6 22 7 7 24 -11 12 -32 19 -60 19 -44 1 -132 31
-170 57 -27 19 -22 20 -365 -31z"/>
<path d="M6655 5014 c-49 -24 -83 -34 -115 -34 -42 0 -70 -13 -70 -32 0 -10
47 -22 309 -79 124 -27 251 -49 282 -49 76 0 172 31 246 79 72 46 82 59 51 65
-18 4 -422 58 -598 81 -26 3 -53 -5 -105 -31z"/>
<path d="M3541 4851 c-129 -31 -236 -62 -238 -67 -4 -11 67 -48 146 -75 100
-35 167 -27 363 42 95 34 181 65 191 71 29 15 14 32 -31 34 -22 1 -66 14 -98
28 -31 14 -66 26 -78 25 -11 0 -126 -26 -255 -58z"/>
<path d="M6365 4885 c-27 -13 -73 -27 -103 -31 -32 -4 -51 -11 -49 -18 2 -6
84 -40 183 -75 219 -78 296 -88 397 -51 67 24 147 67 147 79 0 6 -506 123
-520 120 -3 0 -27 -11 -55 -24z"/>
<path d="M3923 4757 c-73 -29 -133 -55 -133 -58 0 -3 23 -13 51 -22 75 -25
194 -22 266 5 63 23 133 63 133 77 0 6 -167 53 -180 50 -3 -1 -65 -24 -137
-52z"/>
<path d="M6073 4786 c-40 -11 -73 -26 -73 -33 0 -14 106 -66 170 -83 64 -17
159 -15 219 5 28 9 53 20 55 24 5 8 -271 112 -290 110 -5 -1 -42 -11 -81 -23z"/>
<path d="M3130 4753 c0 -10 6 -44 14 -75 l13 -57 -82 -173 c-133 -282 -176
-349 -234 -366 -35 -10 -206 -9 -375 2 l-138 9 66 -131 c165 -323 359 -588
613 -833 468 -452 1022 -720 1703 -826 164 -25 615 -25 785 0 463 70 857 214
1223 448 373 238 725 595 956 968 55 89 206 367 206 380 0 3 -53 1 -117 -6
-65 -6 -170 -12 -233 -12 -194 -1 -200 5 -375 351 l-97 191 14 73 15 74 -53 0
c-30 0 -54 -4 -54 -10 0 -28 -223 -120 -291 -120 -16 0 -31 -6 -33 -12 -2 -7
-18 -57 -36 -112 l-31 -98 75 -78 c68 -70 76 -82 76 -117 0 -21 -7 -48 -15
-60 -8 -12 -38 -61 -66 -109 -27 -48 -58 -93 -67 -101 -26 -19 -77 -15 -175
14 l-89 27 -42 -45 c-23 -24 -68 -68 -100 -97 l-58 -53 21 -84 c25 -100 26
-143 6 -172 -18 -26 -254 -153 -285 -153 -35 0 -62 18 -130 91 l-65 69 -135
-33 -135 -34 -22 -84 c-45 -169 -50 -172 -258 -167 -176 4 -175 3 -214 143
l-27 98 -135 34 -134 33 -70 -75 c-70 -75 -110 -100 -142 -88 -10 3 -73 32
-141 65 -161 77 -165 84 -135 231 l22 102 -47 40 c-26 22 -73 64 -105 94 l-57
54 -103 -32 c-112 -35 -133 -34 -173 10 -41 45 -144 223 -144 249 0 33 19 61
92 136 l60 62 -31 83 c-17 46 -35 103 -41 125 -10 41 -10 41 -67 48 -67 8
-188 54 -248 96 -36 25 -54 30 -99 30 -47 0 -56 -3 -56 -17z m3880 -446 c0
-11 -92 -177 -130 -232 -43 -65 -45 -72 -7 -30 19 22 62 79 94 127 32 48 61
88 64 88 3 0 11 -12 18 -26 10 -23 7 -34 -25 -93 -20 -36 -54 -93 -75 -126
l-40 -60 40 43 c21 23 59 71 83 107 23 35 46 65 49 65 4 0 12 -13 19 -29 13
-32 4 -51 -82 -186 -37 -56 -37 -58 -8 -25 18 19 50 60 73 90 22 30 42 57 44
59 5 7 32 -33 33 -49 0 -8 -22 -50 -50 -92 -27 -43 -47 -78 -45 -78 3 0 31 33
64 74 l59 75 22 -24 23 -25 -52 -82 -51 -83 42 50 c98 113 90 107 117 86 l24
-18 -50 -74 c-27 -41 -53 -81 -57 -89 -10 -19 53 51 101 113 36 46 62 57 91
39 9 -6 -5 -32 -49 -97 -75 -110 -77 -114 -53 -93 10 9 48 55 84 102 58 75 69
85 98 85 17 1 32 -1 32 -4 0 -8 -79 -136 -116 -187 -19 -27 -31 -48 -26 -47 9
1 107 117 156 187 50 70 66 66 26 -5 -102 -181 -241 -362 -414 -541 -450 -463
-999 -742 -1651 -839 -170 -25 -591 -25 -760 0 -183 28 -334 64 -511 122 -269
89 -461 183 -689 336 -355 239 -631 523 -833 859 -61 103 -69 120 -51 120 8 0
49 -44 91 -98 107 -136 158 -182 79 -72 -33 47 -70 102 -81 123 l-21 37 34 0
c31 0 41 -9 116 -100 45 -55 84 -100 86 -100 3 0 -24 42 -60 94 -36 52 -65 99
-65 105 0 6 15 11 33 11 28 -1 40 -11 96 -80 36 -44 67 -80 69 -80 4 0 0 7
-59 92 -27 40 -49 75 -49 78 0 4 12 12 27 19 26 12 29 10 63 -31 75 -91 88
-100 38 -25 l-52 77 22 23 23 22 37 -45 c86 -104 102 -114 42 -26 -59 89 -59
89 -43 117 10 16 20 25 24 21 4 -4 37 -42 73 -85 36 -44 66 -76 66 -73 0 3
-28 46 -62 96 -55 79 -61 93 -52 117 5 14 14 28 19 29 6 2 29 -23 53 -54 94
-126 112 -136 41 -24 -65 101 -71 115 -63 143 5 17 12 30 17 30 4 0 41 -45 81
-99 93 -123 126 -152 60 -52 -28 41 -67 103 -88 137 -34 57 -36 64 -24 88 14
25 15 24 57 -69 80 -177 184 -321 359 -500 320 -327 728 -524 1212 -588 142
-18 423 -16 558 5 475 74 879 279 1197 608 164 170 267 317 358 512 28 61 33
66 44 51 7 -10 13 -22 13 -27z"/>
<path d="M3312 3760 c-51 -31 -66 -78 -57 -181 5 -70 3 -88 -9 -98 -19 -16
-46 -11 -60 11 -8 13 -5 22 13 42 l24 25 -27 36 c-15 19 -31 35 -36 35 -15 0
-57 -63 -64 -96 -9 -39 11 -90 49 -124 21 -20 37 -25 81 -25 47 0 57 4 86 33
l33 32 0 111 c0 96 2 112 18 124 11 8 25 11 33 8 19 -7 18 -52 -3 -75 -15 -17
-15 -20 11 -47 16 -17 35 -27 43 -24 17 7 53 75 53 103 0 65 -63 130 -125 130
-16 0 -45 -9 -63 -20z"/>
<path d="M6704 3688 c-45 -33 -114 -101 -114 -112 0 -5 70 -78 156 -163 l157
-154 28 27 c16 15 29 32 29 38 0 6 -26 37 -57 69 -55 56 -57 59 -39 73 31 22
43 17 95 -36 27 -27 55 -50 64 -50 8 0 27 14 42 31 l26 32 -48 43 c-46 41 -87
66 -125 78 -11 3 -18 15 -18 30 0 13 -12 38 -26 56 -52 61 -119 77 -170 38z"/>
<path d="M3543 3543 c-26 -31 -75 -88 -108 -127 -119 -140 -129 -154 -116
-170 7 -8 44 -41 83 -72 l69 -57 27 26 26 27 -46 47 -47 48 27 33 c32 39 41
40 72 7 30 -32 43 -31 70 2 l21 27 -37 37 -36 37 30 33 c33 36 29 37 104 -23
27 -21 28 -21 48 -3 11 10 20 26 20 35 0 9 -36 47 -79 83 l-80 67 -48 -57z"/>
<path d="M6457 3475 c-48 -36 -87 -67 -87 -69 0 -10 264 -341 274 -344 10 -2
140 88 169 117 12 12 -21 61 -40 61 -8 0 -32 -13 -53 -30 -21 -16 -42 -30 -48
-30 -13 0 -62 58 -62 73 0 7 16 22 35 35 41 26 43 41 12 70 l-23 22 -41 -30
-42 -31 -25 34 c-14 19 -26 38 -26 44 0 5 20 24 45 42 25 18 45 38 45 45 0 11
-35 56 -44 56 -2 0 -42 -29 -89 -65z"/>
<path d="M3757 3358 c-20 -35 -72 -117 -116 -183 -46 -70 -76 -124 -71 -130 5
-5 22 -18 39 -28 l30 -17 45 70 c47 73 54 78 74 58 19 -19 15 -38 -20 -106
l-33 -63 30 -25 c17 -13 35 -24 41 -24 5 0 20 19 32 43 12 23 31 58 42 77 13
22 19 45 16 62 -4 21 -1 27 18 32 34 8 84 69 92 111 9 49 -18 90 -96 142 -35
24 -69 43 -75 43 -6 0 -27 -28 -48 -62z"/>
<path d="M6228 3312 c-124 -73 -125 -74 -104 -106 19 -30 27 -31 66 -11 29 15
30 15 53 -22 13 -21 52 -87 86 -148 35 -60 66 -114 71 -118 12 -13 70 21 70
41 0 10 -6 26 -14 37 -7 11 -43 73 -80 138 -62 112 -76 147 -58 147 4 0 18 9
31 19 22 17 23 19 7 49 -9 18 -20 32 -24 31 -4 0 -51 -26 -104 -57z"/>
<path d="M4046 3261 c-3 -5 -20 -75 -36 -157 -17 -82 -38 -174 -46 -205 -8
-31 -14 -62 -14 -68 0 -13 80 -52 91 -45 4 2 55 70 115 151 59 82 118 162 131
180 l24 32 -23 14 c-56 36 -60 34 -133 -75 -38 -56 -70 -97 -72 -91 -2 6 8 56
22 111 14 55 25 107 25 114 0 8 -16 22 -35 31 -41 20 -42 20 -49 8z"/>
<path d="M6013 3198 c-29 -14 -29 -22 7 -106 17 -39 30 -77 30 -84 0 -7 -35
22 -78 65 l-77 77 -38 -11 c-20 -5 -37 -15 -37 -21 0 -14 160 -390 171 -402 5
-6 22 -3 43 7 l35 16 -40 97 c-21 54 -37 99 -35 101 1 2 39 -35 84 -82 44 -47
84 -85 89 -85 4 0 22 9 40 19 l32 20 -49 108 c-26 59 -65 150 -85 201 -39 96
-47 102 -92 80z"/>
<path d="M4350 3118 c-5 -13 -32 -97 -61 -188 -28 -91 -56 -175 -60 -188 -8
-20 -5 -25 27 -38 31 -13 39 -13 50 -2 11 11 109 303 128 380 6 25 2 29 -30
43 -46 19 -43 19 -54 -7z"/>
<path d="M5655 3079 c-44 -11 -85 -22 -92 -24 -8 -3 5 -66 42 -209 29 -112 56
-209 59 -214 3 -6 46 -1 108 12 90 19 103 25 106 43 2 12 -1 31 -7 42 -10 18
-13 18 -66 5 -31 -8 -60 -12 -65 -9 -12 7 -33 83 -26 94 3 5 26 14 50 20 44
11 44 11 36 42 -13 43 -13 43 -62 31 -23 -6 -44 -9 -46 -7 -8 8 -30 80 -26 87
2 4 29 12 60 19 l55 12 -3 36 c-4 44 -14 46 -123 20z"/>
<path d="M4538 3052 c-38 -23 -52 -58 -81 -197 -16 -82 -21 -129 -16 -149 30
-106 182 -126 236 -31 31 54 27 86 -12 97 -38 10 -55 4 -55 -22 0 -11 -9 -29
-20 -40 -29 -29 -60 -11 -59 33 1 63 43 229 62 241 30 19 52 -5 50 -53 -2 -39
0 -41 38 -53 49 -14 59 -4 59 57 0 103 -116 171 -202 117z"/>
<path d="M4823 3017 c-3 -5 -11 -88 -19 -185 -7 -98 -15 -193 -16 -212 -3 -35
-3 -35 47 -42 28 -3 78 -7 113 -7 l63 -1 -3 38 c-3 37 -3 37 -55 42 -29 3 -57
10 -62 15 -5 6 -7 29 -4 53 l6 43 41 -2 c53 -3 66 5 66 41 0 31 -14 40 -66 40
l-35 0 3 48 3 47 62 -3 c60 -3 63 -2 69 22 13 53 -1 60 -149 69 -32 2 -60 0
-64 -6z"/>
<path d="M5302 3010 c-58 -35 -65 -70 -46 -218 9 -72 23 -140 33 -157 38 -69
141 -82 204 -25 26 23 31 35 35 88 5 69 -5 81 -55 65 -24 -8 -29 -16 -33 -54
-4 -38 -8 -44 -31 -47 -14 -2 -31 3 -37 11 -13 16 -42 221 -34 249 2 10 16 21
30 25 29 7 52 -17 52 -54 0 -20 5 -23 43 -23 24 0 46 2 49 5 15 15 -15 92 -47
123 -29 27 -42 32 -82 32 -30 0 -60 -7 -81 -20z"/>
<path d="M5970 4643 c-32 -78 -107 -186 -179 -260 -373 -382 -970 -389 -1345
-17 -81 81 -127 145 -175 242 -40 78 -53 93 -66 73 -8 -14 -110 -51 -178 -65
l-57 -12 43 -89 c138 -284 324 -471 601 -605 115 -56 225 -93 341 -115 l80
-15 -71 5 c-170 12 -406 98 -573 209 -215 143 -387 348 -466 557 -25 63 -27
66 -75 81 -28 9 -50 13 -50 8 0 -16 53 -148 87 -215 185 -370 556 -640 988
-721 134 -25 384 -26 508 -1 271 55 499 173 695 361 150 145 258 301 321 466
49 129 49 122 -1 104 -24 -8 -75 -18 -113 -21 l-71 -6 -48 -94 c-170 -326
-545 -581 -894 -608 -61 -5 -57 -3 33 14 296 55 543 210 724 451 63 84 145
235 136 249 -3 5 -22 15 -43 21 -20 7 -57 23 -81 36 -24 13 -44 24 -45 24 -1
0 -13 -25 -26 -57z"/>
<path d="M3710 4670 c-8 -5 -24 -10 -35 -10 -43 -1 -48 -13 -31 -72 9 -30 30
-90 47 -133 l30 -78 -76 -77 c-41 -43 -76 -84 -76 -91 -3 -29 5 -45 68 -145
49 -78 71 -106 91 -111 18 -4 58 4 125 27 l97 34 58 -55 c48 -47 80 -74 185
-160 5 -3 -1 -42 -12 -87 -12 -44 -21 -99 -21 -121 0 -39 3 -42 53 -71 28 -16
90 -46 136 -67 l84 -37 83 87 83 87 98 -24 c54 -14 116 -28 138 -31 87 -13 80
-7 110 -114 15 -55 33 -108 40 -118 12 -16 30 -18 161 -17 170 2 163 -2 188
102 39 154 27 137 108 152 40 7 111 24 157 37 l83 24 83 -80 c45 -45 91 -81
100 -81 20 0 220 103 248 127 22 21 22 31 -9 152 l-25 102 28 21 c15 12 69 62
120 111 l91 89 49 -15 c88 -29 171 -47 186 -41 16 6 147 226 147 246 0 7 -36
49 -80 93 l-81 81 36 106 c19 58 35 112 35 120 0 8 -18 19 -42 25 -24 7 -50
14 -59 18 -11 4 -19 -2 -27 -22 -81 -219 -134 -324 -230 -453 -67 -89 -184
-207 -281 -281 -59 -45 -68 -56 -58 -69 11 -13 10 -13 -6 -1 -16 12 -20 12
-34 -2 -14 -14 -14 -18 -2 -33 12 -15 12 -17 -1 -12 -42 17 -55 20 -41 10 9
-6 11 -16 6 -28 -4 -11 -9 -55 -11 -99 -1 -46 -7 -81 -13 -83 -6 -2 -11 -8
-11 -13 0 -6 4 -8 9 -4 6 3 8 -4 6 -16 -3 -15 0 -19 11 -15 12 4 12 2 4 -14
-6 -11 -7 -20 -2 -20 6 0 17 -12 27 -27 10 -16 -23 12 -72 60 l-89 88 -64 -20
c-54 -17 -158 -43 -266 -66 -18 -4 -26 -22 -49 -115 -19 -77 -33 -114 -46
-120 -10 -6 -70 -10 -133 -10 -131 0 -133 1 -156 90 -6 25 -18 68 -26 96 l-15
52 -88 16 c-49 9 -128 27 -176 41 l-87 25 -66 -71 c-37 -40 -71 -78 -75 -85
-4 -8 -14 -14 -22 -14 -23 0 -65 22 -59 31 3 5 -3 6 -12 2 -13 -5 -15 -3 -9 7
6 10 4 12 -7 7 -9 -3 -34 3 -56 14 -40 20 -40 21 -21 40 10 10 27 19 37 19 14
0 15 2 2 10 -13 8 -12 10 3 10 21 0 21 3 1 42 -13 25 -14 32 -2 39 10 7 8 9
-7 10 -17 1 -16 2 5 9 17 5 19 8 8 9 -10 1 -18 5 -18 10 0 5 8 12 18 14 9 3 4
5 -13 6 l-30 1 25 13 c21 11 25 20 26 59 1 44 0 46 -18 37 -10 -6 -24 -8 -31
-5 -7 2 -3 5 8 5 17 1 17 3 5 11 -8 5 -10 10 -3 10 26 0 -3 43 -61 89 -192
153 -340 367 -430 621 -33 94 -47 109 -76 90z"/>
</g>
</svg>
